<?xml version="1.0" encoding="utf-8"?>
<!-- Generator: Adobe Illustrator 16.0.0, SVG Export Plug-In . SVG Version: 6.00 Build 0)  -->
<!DOCTYPE svg PUBLIC "-//W3C//DTD SVG 1.1//EN" "http://www.w3.org/Graphics/SVG/1.1/DTD/svg11.dtd">
<svg version="1.1" id="Layer_1" xmlns="http://www.w3.org/2000/svg" xmlns:xlink="http://www.w3.org/1999/xlink" x="0px" y="0px"
	 width="199.238px" height="50.152px" viewBox="0 0 199.238 50.152" enable-background="new 0 0 199.238 50.152"
	 xml:space="preserve">
<path fill="#4C9CD6" d="M28.599,28.108c0-4.214-0.985-7.607-2.954-10.18c-2.337-3.048-5.811-4.571-10.42-4.571
	c-2.381,0-4.973,0.665-7.775,1.994c-2.803,1.33-4.204,2.535-4.204,3.615c0,0.065,0.141,0.26,0.422,0.583
	c0.281,0.325,0.433,0.573,0.454,0.746h1.916c2.099-1.103,3.539-1.837,4.317-2.205c2.771-1.296,4.696-1.945,5.779-1.945
	c1.948,0,3.689,0.713,5.227,2.14c1.428,1.318,2.142,2.68,2.142,4.085c0,2.68-2.034,4.625-6.103,5.836
	c-3.788,1.08-7.564,2.161-11.33,3.242C2.023,33.328,0,36.429,0,40.751c0,2.528,0.93,4.647,2.792,6.354
	c1.861,1.707,4.079,2.561,6.655,2.561c1.644,0,3.311-0.377,4.999-1.135c1.341-0.604,2.683-1.438,4.025-2.496
	c-0.953,0.087-1.872,0.162-2.759,0.229c-0.888,0.063-1.688,0.096-2.403,0.096c-2.38,0-4.23-0.377-5.551-1.135
	c-1.775-1.016-2.662-2.731-2.662-5.154c0-2.615,1.767-5.09,5.301-7.424c3.165-2.096,6.005-3.145,8.52-3.145
	c1.712,0,2.969,0.475,3.772,1.426c0.888,1.037,1.333,2.724,1.333,5.058c0,0.13,0,0.275,0,0.438c0,0.161,0,0.352,0,0.566
	c0,1.017-0.216,2.021-0.649,3.016c-0.649,1.47-1.829,3.188-3.538,5.154c1.233,0.41,2.25,1.329,3.051,2.756
	c0.649,1.167,1.786,1.75,3.409,1.75c0.584,0,1.114-0.496,1.59-1.49c0.476-0.994,0.714-1.999,0.714-3.016V28.108z"/>
<path fill="#96989A" d="M51.615,13.713c-0.304-0.108-0.595-0.227-0.876-0.356c-0.347-0.108-0.888-0.162-1.623-0.162
	c-1.407,0-2.976,0.654-4.707,1.961c-1.732,1.308-3.116,1.961-4.155,1.961c-0.714,0-1.677-0.41-2.889-1.232
	c-1.212-0.821-1.98-1.231-2.305-1.231c-0.541,0-1.044,0.427-1.51,1.28c-0.466,0.854-0.698,1.594-0.698,2.221V46.23
	c0,1.06,0.163,1.772,0.487,2.14c0.151,0.174,0.822,0.604,2.013,1.297c0.713-0.69,1.189-1.252,1.428-1.687
	c0.346-0.604,0.52-1.35,0.52-2.235V33.944c0-3.891,1.114-7.305,3.344-10.245c1.579-2.096,3.733-3.944,6.459-5.543
	c1.493-0.821,2.997-1.653,4.512-2.497V13.713z"/>
<path fill="#96989A" d="M78.743,41.401L78.743,41.401c-2.056,2.766-4.848,4.148-8.375,4.148c-3.073,0-5.519-0.767-7.336-2.301
	c-1.428-1.211-2.424-2.864-2.986-4.961c-0.369-1.361-0.552-2.993-0.552-4.896c0-0.194,0-0.524,0-0.988c0-0.465,0-0.784,0-0.956
	c0-4.777,0.738-8.312,2.213-10.602c1.65-2.571,4.384-3.858,8.205-3.858c3.733,0,6.653,1.405,8.758,4.215
	c1.976,2.637,2.962,6.052,2.962,10.245C81.632,35.489,80.669,38.807,78.743,41.401 M83.255,19.802
	c-1.559-2.311-3.647-4.081-6.265-5.312c-1.84-0.864-3.496-1.296-4.967-1.296s-3.452,0.541-5.94,1.621
	c-1.104,0.476-2.122,0.713-3.052,0.713c-1.797,0-2.976-0.896-3.538-2.691c-0.325-1.038-0.487-2.939-0.487-5.706
	c0-1.772-0.032-3.004-0.097-3.696c-0.195-2.053-0.888-3.08-2.078-3.08c-0.498,0-0.925,0.271-1.282,0.81
	c-0.357,0.541-0.536,1.178-0.536,1.913c-0.065,1.794-0.13,3.961-0.195,6.5c-0.065,2.541-0.13,6.149-0.195,10.829
	c-0.065,4.68-0.097,12.109-0.097,22.289c0,2.638,0.14,4.367,0.422,5.188c0.39,1.124,1.244,1.687,2.564,1.687
	c1.515,0,2.672-0.336,3.473-1.006c0.909-0.777,1.466-1.184,1.672-1.215c0.205-0.033,0.427-0.05,0.665-0.05
	c1.385,0.533,2.749,1.044,4.09,1.534c1.341,0.49,2.792,0.734,4.35,0.734c4.35,0,7.899-1.867,10.648-5.604
	c2.597-3.52,3.895-7.784,3.895-12.795C86.307,26.616,85.289,22.826,83.255,19.802z"/>
<path fill="#96989A" d="M94.648,16.113L94.648,16.113c0-0.821-0.194-1.551-0.581-2.188c-0.387-0.637-0.924-0.957-1.612-0.957
	c-1.097,0-1.801,0.67-2.112,2.01c-0.311,1.34-0.467,3.901-0.467,7.684c0,1.318,0,2.696,0,4.134s0,2.945,0,4.521
	c0,1.319,0,3.016,0,5.091c0,2.074,0,3.49,0,4.247c0,6.008,0.779,9.012,2.337,9.012c0.577,0,1.126-0.372,1.65-1.118
	c0.522-0.744,0.785-1.593,0.785-2.545V16.113z M94.863,4.295C95.087,3.831,95.2,3.329,95.2,2.788c0-0.951-0.321-1.686-0.962-2.205
	C93.681,0.194,93.103,0,92.504,0c-0.835,0-1.546,0.297-2.134,0.892c-0.588,0.595-0.883,1.324-0.883,2.188
	c0,1.016,0.385,1.805,1.156,2.367c0.556,0.324,1.101,0.486,1.637,0.486c0.557,0,1.091-0.162,1.604-0.486
	C94.312,5.144,94.638,4.761,94.863,4.295z"/>
<path fill="#4C9CD6" d="M118.866,30.831c-3.464-1.317-6.927-2.637-10.39-3.955c-3.722-1.469-5.582-3.392-5.582-5.771
	c0-1.08,0.659-2.269,1.979-3.566c1.578-1.535,3.431-2.302,5.551-2.302c1.125,0,2.445,0.303,3.959,0.908
	c1.365,0.541,2.934,1.178,4.709,1.913c0.13,0,0.378-0.108,0.746-0.324c0.15-0.086,0.291-0.13,0.422-0.13v-1.88
	c-1.623-1.188-3.047-1.956-4.27-2.302c-1.223-0.345-3.078-0.518-5.566-0.518c-3.723,0-6.684,0.821-8.879,2.464
	c-2.196,1.643-3.294,3.782-3.294,6.419c0,3.156,1.904,5.707,5.712,7.651c3.527,1.384,7.066,2.756,10.615,4.117
	c3.787,1.622,5.682,3.643,5.682,6.063c0,1.384-0.79,2.788-2.369,4.215c-1.73,1.556-3.689,2.335-5.876,2.335
	c-1.386,0-2.954-0.411-4.707-1.232c-3.593-1.686-5.54-2.528-5.845-2.528c-0.756,0-1.264,0.217-1.524,0.648
	c-0.129,0.216-0.227,0.476-0.292,0.778c1.363,1.924,3.234,3.36,5.616,4.312c2.077,0.845,4.415,1.267,7.012,1.267
	c3.57,0,6.498-0.888,8.781-2.659c2.282-1.771,3.425-4.149,3.425-7.133C124.481,35.813,122.609,32.885,118.866,30.831"/>
<path fill="#96989A" d="M151.813,40.493L151.813,40.493c-1.991,3.501-4.924,5.252-8.798,5.252c-2.662,0-5.021-1.222-7.076-3.664
	c-2.381-2.809-3.571-6.57-3.571-11.281c0-3.869,0.975-7.176,2.922-9.921c2.1-2.961,4.857-4.442,8.277-4.442
	c3.551,0,6.266,1.449,8.148,4.345c1.645,2.528,2.467,5.803,2.467,9.823C154.182,34.43,153.392,37.726,151.813,40.493 M155.351,19.29
	c-1.731-2.377-4.047-4.16-6.946-5.349c-1.947-0.799-3.669-1.199-5.162-1.199c-3.679,0-6.783,1.059-9.316,3.177
	c-2.143,1.794-3.776,4.215-4.901,7.262c-0.931,2.529-1.396,5.166-1.396,7.91c0,4.647,1.113,8.526,3.344,11.639
	c1.709,2.399,3.992,4.206,6.849,5.415c2.078,0.887,3.993,1.33,5.746,1.33c3.571,0,6.601-1.039,9.091-3.113
	c2.076-1.729,3.68-4.096,4.805-7.101c0.93-2.507,1.396-5.068,1.396-7.684C158.857,26.584,157.689,22.488,155.351,19.29z"/>
<path fill="#96989A" d="M177.23,1.005c-0.39-0.173-0.854-0.259-1.396-0.259c-2.402,0-4.222,0.768-5.455,2.302
	c-0.821,1.038-1.449,2.637-1.883,4.798c-0.519,2.615-0.812,4.009-0.875,4.182c-0.392,0.886-1.58,2.054-3.572,3.501
	c-0.778,0.562-1.168,1.113-1.168,1.653c0,0.627,0.455,1.275,1.363,1.945c1.233,0.908,2.057,1.632,2.467,2.172
	c0.888,1.211,1.332,2.81,1.332,4.798V47.3c0,1.405,0.442,2.248,1.33,2.528c0.26,0.064,0.617,0.174,1.071,0.324
	c0.691-0.863,1.185-1.69,1.478-2.479c0.293-0.788,0.438-1.69,0.438-2.707V23.829c0-1.21,0.573-2.258,1.721-3.145
	c1.947-1.535,3.246-2.702,3.896-3.501c-1.212-1.059-2.413-2.118-3.603-3.177c-1.342-1.21-2.014-2.442-2.014-3.696
	c0-1.383,0.553-2.594,1.655-3.631c2.728-2.593,4.188-4.268,4.382-5.025C178.118,1.502,177.728,1.286,177.23,1.005"/>
<path fill="#96989A" d="M195.797,12.449c-1.256-0.54-2.176-1.248-2.76-2.124c-0.584-0.875-0.914-2.68-0.99-5.414
	c-0.075-2.734-0.784-4.101-2.125-4.101c-0.866,0-1.461,0.583-1.785,1.75c-0.217,0.778-0.325,1.902-0.325,3.372v1.492
	c-0.13,1.275-0.704,2.518-1.722,3.728c-0.907,1.081-1.937,2.28-3.084,3.599c1.104,1.211,2.209,2.41,3.313,3.599
	c0.995,1.189,1.493,2.302,1.493,3.339v19.322c0,2.334,0.584,4.279,1.754,5.835c1.363,1.816,3.354,2.725,5.972,2.725
	c1.43,0,2.219-0.065,2.371-0.194c0.26-0.563,0.52-1.135,0.778-1.719c-2.836-2.247-4.491-3.652-4.967-4.216
	c-0.888-1.036-1.417-2.408-1.591-4.116c-0.064-0.669-0.098-3.576-0.098-8.721c0-5.813,0.357-9.628,1.07-11.444
	c0.412-1.059,1.332-1.788,2.76-2.188c1.43-0.399,2.555-1.356,3.376-2.869C198.806,13.822,197.659,13.271,195.797,12.449"/>
</svg>
