<?xml version="1.0" encoding="utf-8"?>
<!-- Generator: Adobe Illustrator 16.0.0, SVG Export Plug-In . SVG Version: 6.00 Build 0)  -->
<!DOCTYPE svg PUBLIC "-//W3C//DTD SVG 1.1//EN" "http://www.w3.org/Graphics/SVG/1.1/DTD/svg11.dtd">
<svg version="1.1" id="Layer_1" xmlns="http://www.w3.org/2000/svg" xmlns:xlink="http://www.w3.org/1999/xlink" x="0px" y="0px"
	 width="199.238px" height="50.153px" viewBox="0 0 199.238 50.153" enable-background="new 0 0 199.238 50.153"
	 xml:space="preserve">
<path fill="#3F99D4" d="M28.599,28.108c0-4.214-0.985-7.607-2.954-10.18c-2.337-3.047-5.811-4.571-10.42-4.571
	c-2.381,0-4.972,0.665-7.775,1.994c-2.803,1.33-4.204,2.535-4.204,3.615c0,0.064,0.141,0.259,0.423,0.583
	c0.281,0.324,0.432,0.573,0.454,0.746h1.916c2.099-1.103,3.539-1.836,4.317-2.205c2.771-1.297,4.696-1.945,5.779-1.945
	c1.948,0,3.689,0.713,5.226,2.14c1.428,1.318,2.143,2.68,2.143,4.084c0,2.681-2.034,4.625-6.103,5.835
	c-3.788,1.082-7.564,2.162-11.33,3.242C2.023,33.328,0,36.429,0,40.752c0,2.529,0.93,4.647,2.792,6.354s4.079,2.561,6.655,2.561
	c1.644,0,3.311-0.378,4.999-1.135c1.341-0.604,2.683-1.437,4.025-2.496c-0.953,0.087-1.872,0.162-2.759,0.228
	c-0.888,0.064-1.688,0.097-2.403,0.097c-2.38,0-4.23-0.378-5.551-1.135c-1.775-1.016-2.662-2.733-2.662-5.155
	c0-2.615,1.767-5.089,5.301-7.424c3.165-2.096,6.005-3.145,8.52-3.145c1.712,0,2.969,0.476,3.772,1.427
	c0.888,1.037,1.333,2.723,1.333,5.057c0,0.13,0,0.276,0,0.438c0,0.162,0,0.352,0,0.567c0,1.017-0.216,2.021-0.649,3.015
	c-0.649,1.47-1.829,3.189-3.538,5.155c1.233,0.41,2.25,1.329,3.051,2.756c0.649,1.167,1.786,1.75,3.409,1.75
	c0.584,0,1.114-0.496,1.59-1.49s0.714-1.999,0.714-3.016V28.108L28.599,28.108z"/>
<path fill="#939598" d="M51.615,13.714c-0.304-0.108-0.596-0.227-0.876-0.357c-0.347-0.108-0.888-0.162-1.623-0.162
	c-1.407,0-2.976,0.654-4.707,1.961c-1.732,1.308-3.116,1.961-4.155,1.961c-0.714,0-1.677-0.41-2.889-1.232
	c-1.212-0.821-1.98-1.232-2.305-1.232c-0.541,0-1.044,0.427-1.51,1.281c-0.466,0.854-0.698,1.594-0.698,2.221V46.23
	c0,1.06,0.163,1.772,0.487,2.14c0.151,0.174,0.822,0.605,2.013,1.297c0.714-0.691,1.19-1.253,1.428-1.686
	c0.346-0.604,0.52-1.351,0.52-2.237V33.943c0-3.891,1.114-7.305,3.344-10.244c1.579-2.096,3.732-3.944,6.459-5.544
	c1.493-0.821,2.997-1.653,4.512-2.497V13.714L51.615,13.714z"/>
<path fill="#939598" d="M83.255,19.803c-1.559-2.311-3.647-4.081-6.265-5.312c-1.84-0.864-3.496-1.296-4.967-1.296
	s-3.452,0.541-5.94,1.621c-1.104,0.476-2.122,0.713-3.052,0.713c-1.797,0-2.976-0.896-3.539-2.691
	c-0.324-1.038-0.487-2.939-0.487-5.706c0-1.772-0.032-3.004-0.097-3.696c-0.195-2.053-0.888-3.08-2.078-3.08
	c-0.498,0-0.925,0.271-1.282,0.81c-0.357,0.541-0.536,1.178-0.536,1.913c-0.065,1.794-0.13,3.961-0.195,6.5
	c-0.065,2.54-0.13,6.149-0.195,10.828c-0.065,4.68-0.097,12.109-0.097,22.289c0,2.637,0.14,4.367,0.422,5.188
	c0.389,1.123,1.244,1.686,2.564,1.686c1.514,0,2.672-0.335,3.473-1.005c0.909-0.778,1.466-1.184,1.672-1.216
	c0.205-0.033,0.427-0.049,0.665-0.049c1.385,0.533,2.749,1.044,4.09,1.534s2.792,0.735,4.35,0.735c4.35,0,7.899-1.868,10.647-5.604
	c2.597-3.52,3.896-7.785,3.896-12.795C86.307,26.616,85.289,22.826,83.255,19.803L83.255,19.803z M78.743,41.4L78.743,41.4
	c-2.057,2.767-4.848,4.149-8.375,4.149c-3.073,0-5.519-0.767-7.336-2.302c-1.428-1.21-2.424-2.863-2.986-4.96
	c-0.369-1.362-0.552-2.994-0.552-4.896c0-0.194,0-0.524,0-0.989s0-0.783,0-0.957c0-4.776,0.738-8.31,2.214-10.601
	c1.65-2.572,4.384-3.858,8.205-3.858c3.732,0,6.652,1.405,8.758,4.214c1.975,2.637,2.962,6.052,2.962,10.245
	C81.632,35.489,80.669,38.807,78.743,41.4L78.743,41.4z"/>
<path fill="#939598" d="M94.862,4.296C95.087,3.831,95.2,3.329,95.2,2.788c0-0.951-0.321-1.686-0.962-2.204
	C93.68,0.194,93.103,0,92.504,0c-0.835,0-1.546,0.297-2.134,0.892c-0.588,0.595-0.883,1.324-0.883,2.188
	c0,1.016,0.385,1.805,1.156,2.366c0.556,0.325,1.101,0.487,1.637,0.487c0.556,0,1.091-0.162,1.604-0.487
	C94.312,5.144,94.638,4.761,94.862,4.296L94.862,4.296z M94.648,16.113L94.648,16.113c0-0.821-0.193-1.551-0.58-2.188
	c-0.387-0.637-0.924-0.957-1.612-0.957c-1.097,0-1.801,0.67-2.112,2.01c-0.311,1.34-0.467,3.902-0.467,7.684
	c0,1.318,0,2.697,0,4.133c0,1.438,0,2.945,0,4.522c0,1.319,0,3.015,0,5.09c0,2.075,0,3.491,0,4.247c0,6.009,0.779,9.013,2.337,9.013
	c0.577,0,1.126-0.372,1.65-1.118c0.522-0.746,0.784-1.594,0.784-2.545V16.113L94.648,16.113z"/>
<path fill="#3F99D4" d="M118.865,30.832c-3.463-1.318-6.926-2.637-10.389-3.956c-3.723-1.469-5.582-3.393-5.582-5.771
	c0-1.08,0.658-2.269,1.979-3.566c1.58-1.535,3.43-2.302,5.551-2.302c1.125,0,2.445,0.303,3.961,0.908
	c1.363,0.541,2.932,1.178,4.707,1.913c0.131,0,0.379-0.108,0.746-0.324c0.152-0.086,0.293-0.129,0.422-0.129v-1.881
	c-1.623-1.188-3.045-1.956-4.268-2.302c-1.223-0.346-3.08-0.519-5.568-0.519c-3.721,0-6.682,0.821-8.877,2.464
	c-2.197,1.643-3.295,3.783-3.295,6.419c0,3.156,1.904,5.706,5.713,7.651c3.527,1.383,7.064,2.756,10.615,4.117
	c3.787,1.621,5.68,3.642,5.68,6.063c0,1.383-0.789,2.788-2.369,4.215c-1.73,1.556-3.689,2.334-5.875,2.334
	c-1.385,0-2.955-0.41-4.707-1.232c-3.592-1.686-5.541-2.528-5.844-2.528c-0.758,0-1.266,0.216-1.525,0.648
	c-0.13,0.216-0.227,0.476-0.292,0.778c1.365,1.924,3.236,3.361,5.617,4.312c2.076,0.843,4.414,1.265,7.012,1.265
	c3.57,0,6.498-0.886,8.781-2.658s3.424-4.15,3.424-7.133C124.48,35.813,122.609,32.885,118.865,30.832L118.865,30.832z"/>
<path fill="#939598" d="M155.352,19.29c-1.732-2.377-4.047-4.16-6.947-5.35c-1.947-0.799-3.668-1.199-5.162-1.199
	c-3.68,0-6.783,1.059-9.316,3.177c-2.143,1.794-3.777,4.214-4.902,7.262c-0.93,2.529-1.395,5.166-1.395,7.911
	c0,4.647,1.113,8.526,3.344,11.639c1.709,2.399,3.992,4.204,6.848,5.414c2.078,0.887,3.994,1.329,5.746,1.329
	c3.572,0,6.602-1.037,9.09-3.112c2.078-1.729,3.68-4.096,4.805-7.1c0.93-2.507,1.396-5.068,1.396-7.684
	C158.857,26.584,157.689,22.489,155.352,19.29L155.352,19.29z M151.813,40.492L151.813,40.492c-1.99,3.502-4.924,5.252-8.797,5.252
	c-2.662,0-5.021-1.221-7.076-3.663c-2.381-2.809-3.572-6.57-3.572-11.282c0-3.869,0.975-7.175,2.922-9.92
	c2.1-2.96,4.857-4.442,8.277-4.442c3.551,0,6.266,1.449,8.148,4.345c1.645,2.529,2.467,5.803,2.467,9.823
	C154.182,34.43,153.393,37.727,151.813,40.492L151.813,40.492z"/>
<path fill="#939598" d="M177.23,1.005c-0.391-0.173-0.855-0.259-1.396-0.259c-2.402,0-4.221,0.767-5.453,2.302
	c-0.822,1.037-1.451,2.637-1.883,4.798c-0.52,2.615-0.813,4.009-0.877,4.182c-0.391,0.887-1.58,2.054-3.57,3.501
	c-0.779,0.562-1.17,1.113-1.17,1.653c0,0.627,0.455,1.276,1.363,1.945c1.234,0.908,2.057,1.632,2.469,2.172
	c0.887,1.211,1.33,2.81,1.33,4.798v21.203c0,1.405,0.443,2.247,1.33,2.528c0.26,0.065,0.617,0.173,1.072,0.324
	c0.691-0.864,1.186-1.69,1.477-2.479c0.293-0.789,0.439-1.691,0.439-2.707V23.829c0-1.21,0.572-2.258,1.719-3.145
	c1.949-1.534,3.248-2.702,3.896-3.501c-1.213-1.059-2.414-2.118-3.604-3.177c-1.342-1.21-2.012-2.442-2.012-3.696
	c0-1.383,0.551-2.594,1.654-3.631c2.727-2.594,4.188-4.268,4.383-5.025C178.117,1.503,177.729,1.286,177.23,1.005L177.23,1.005z"/>
<path fill="#939598" d="M195.797,12.449c-1.254-0.54-2.174-1.248-2.758-2.124c-0.584-0.875-0.914-2.68-0.99-5.414
	c-0.076-2.734-0.785-4.101-2.127-4.101c-0.865,0-1.461,0.583-1.785,1.75c-0.217,0.778-0.324,1.902-0.324,3.372v1.491
	c-0.131,1.275-0.703,2.518-1.721,3.728c-0.908,1.081-1.938,2.28-3.084,3.599c1.104,1.21,2.207,2.41,3.311,3.598
	c0.996,1.189,1.494,2.302,1.494,3.339v19.322c0,2.334,0.584,4.28,1.754,5.835c1.363,1.815,3.354,2.724,5.971,2.724
	c1.43,0,2.219-0.065,2.371-0.194c0.26-0.563,0.52-1.135,0.779-1.719c-2.836-2.248-4.492-3.652-4.967-4.214
	c-0.889-1.038-1.418-2.41-1.59-4.118c-0.066-0.669-0.098-3.577-0.098-8.721c0-5.814,0.355-9.628,1.07-11.444
	c0.412-1.059,1.33-1.788,2.76-2.188c1.428-0.399,2.553-1.356,3.375-2.869C198.807,13.822,197.658,13.271,195.797,12.449
	L195.797,12.449z"/>
</svg>
