<?xml version="1.0" encoding="utf-8"?>
<!-- Generator: Adobe Illustrator 16.0.0, SVG Export Plug-In . SVG Version: 6.00 Build 0)  -->
<!DOCTYPE svg PUBLIC "-//W3C//DTD SVG 1.1//EN" "http://www.w3.org/Graphics/SVG/1.1/DTD/svg11.dtd">
<svg version="1.1" id="Layer_1" xmlns="http://www.w3.org/2000/svg" xmlns:xlink="http://www.w3.org/1999/xlink" x="0px" y="0px"
	 width="35.553px" height="45.139px" viewBox="0 0 35.553 45.139" enable-background="new 0 0 35.553 45.139" xml:space="preserve">
<path fill="#4C9CD6" d="M35.553,18.338c0-5.239-1.225-9.457-3.672-12.655C28.975,1.895,24.656,0,18.927,0
	c-2.96,0-6.182,0.827-9.666,2.479C5.777,4.131,4.035,5.63,4.035,6.973c0,0.081,0.175,0.322,0.525,0.726
	C4.91,8.101,5.098,8.41,5.125,8.625h2.381c2.609-1.37,4.399-2.283,5.367-2.741c3.443-1.612,5.838-2.418,7.184-2.418
	c2.421,0,4.586,0.887,6.497,2.66c1.774,1.639,2.663,3.332,2.663,5.078c0,3.332-2.529,5.75-7.586,7.255
	c-4.708,1.344-9.403,2.687-14.085,4.03C2.515,24.826,0,28.683,0,34.056c0,3.144,1.156,5.777,3.471,7.899
	c2.313,2.123,5.071,3.184,8.272,3.184c2.044,0,4.116-0.47,6.214-1.41c1.667-0.752,3.335-1.787,5.003-3.104
	c-1.184,0.107-2.326,0.201-3.43,0.282c-1.104,0.08-2.098,0.121-2.986,0.121c-2.959,0-5.259-0.47-6.9-1.411
	c-2.207-1.263-3.309-3.398-3.309-6.408c0-3.25,2.196-6.327,6.589-9.229c3.935-2.605,7.466-3.908,10.591-3.908
	c2.129,0,3.691,0.591,4.689,1.773c1.104,1.289,1.657,3.385,1.657,6.286c0,0.162,0,0.343,0,0.544c0,0.202,0,0.438,0,0.706
	c0,1.263-0.269,2.513-0.808,3.748c-0.807,1.827-2.273,3.964-4.398,6.408c1.533,0.511,2.799,1.652,3.794,3.426
	c0.807,1.45,2.22,2.176,4.237,2.176c0.727,0,1.385-0.617,1.977-1.854c0.592-1.235,0.889-2.485,0.889-3.748V18.338z"/>
</svg>
