<?xml version="1.0" encoding="utf-8"?>
<!-- Generator: Adobe Illustrator 16.0.0, SVG Export Plug-In . SVG Version: 6.00 Build 0)  -->
<!DOCTYPE svg PUBLIC "-//W3C//DTD SVG 1.1//EN" "http://www.w3.org/Graphics/SVG/1.1/DTD/svg11.dtd">
<svg version="1.1" id="Layer_1" xmlns="http://www.w3.org/2000/svg" xmlns:xlink="http://www.w3.org/1999/xlink" x="0px" y="0px"
	 width="200.966px" height="85.543px" viewBox="0 0 200.966 85.543" enable-background="new 0 0 200.966 85.543"
	 xml:space="preserve">
<path fill="#4C9CD6" d="M28.599,28.108c0-4.214-0.985-7.607-2.954-10.18c-2.337-3.048-5.811-4.571-10.42-4.571
	c-2.381,0-4.973,0.665-7.775,1.994c-2.803,1.33-4.204,2.535-4.204,3.615c0,0.065,0.141,0.26,0.422,0.583
	c0.281,0.325,0.433,0.573,0.454,0.746h1.916c2.099-1.103,3.539-1.837,4.317-2.205c2.771-1.296,4.696-1.945,5.779-1.945
	c1.948,0,3.689,0.713,5.227,2.14c1.428,1.318,2.142,2.68,2.142,4.085c0,2.68-2.034,4.625-6.103,5.836
	c-3.788,1.08-7.564,2.161-11.33,3.242C2.023,33.328,0,36.429,0,40.751c0,2.528,0.93,4.647,2.792,6.354
	c1.861,1.707,4.079,2.561,6.655,2.561c1.644,0,3.311-0.377,4.999-1.135c1.341-0.604,2.683-1.437,4.025-2.496
	c-0.953,0.087-1.872,0.162-2.759,0.228c-0.888,0.064-1.688,0.097-2.403,0.097c-2.38,0-4.23-0.377-5.551-1.135
	c-1.775-1.016-2.662-2.732-2.662-5.154c0-2.615,1.767-5.09,5.301-7.424c3.165-2.096,6.005-3.145,8.52-3.145
	c1.712,0,2.969,0.475,3.772,1.426c0.888,1.037,1.333,2.724,1.333,5.058c0,0.13,0,0.275,0,0.438c0,0.161,0,0.352,0,0.566
	c0,1.017-0.216,2.021-0.649,3.016c-0.649,1.47-1.829,3.188-3.538,5.154c1.233,0.411,2.25,1.329,3.051,2.756
	c0.649,1.167,1.786,1.75,3.409,1.75c0.584,0,1.114-0.496,1.59-1.49s0.714-1.999,0.714-3.016V28.108z"/>
<path fill="#96989A" d="M51.615,13.713c-0.304-0.108-0.595-0.227-0.876-0.356c-0.347-0.108-0.888-0.162-1.623-0.162
	c-1.407,0-2.976,0.654-4.707,1.961c-1.732,1.308-3.116,1.961-4.155,1.961c-0.714,0-1.677-0.41-2.889-1.232
	c-1.212-0.821-1.98-1.231-2.305-1.231c-0.541,0-1.044,0.427-1.51,1.28c-0.466,0.854-0.698,1.594-0.698,2.221v28.076
	c0,1.059,0.163,1.772,0.487,2.139c0.151,0.174,0.822,0.605,2.013,1.297c0.713-0.691,1.189-1.252,1.428-1.686
	c0.346-0.604,0.52-1.35,0.52-2.236V33.944c0-3.891,1.114-7.305,3.344-10.245c1.579-2.096,3.733-3.944,6.459-5.543
	c1.493-0.821,2.997-1.653,4.512-2.497V13.713z"/>
<path fill="#96989A" d="M78.743,41.401L78.743,41.401c-2.056,2.766-4.848,4.148-8.375,4.148c-3.073,0-5.519-0.767-7.336-2.301
	c-1.428-1.211-2.424-2.864-2.986-4.961c-0.369-1.361-0.552-2.993-0.552-4.896c0-0.194,0-0.524,0-0.988c0-0.465,0-0.784,0-0.956
	c0-4.777,0.738-8.311,2.213-10.602c1.65-2.571,4.384-3.858,8.205-3.858c3.733,0,6.653,1.405,8.758,4.215
	c1.976,2.637,2.962,6.052,2.962,10.245C81.632,35.489,80.669,38.807,78.743,41.401 M83.255,19.802
	c-1.559-2.311-3.647-4.081-6.265-5.312c-1.84-0.864-3.496-1.296-4.967-1.296s-3.452,0.541-5.94,1.621
	c-1.104,0.476-2.122,0.713-3.052,0.713c-1.797,0-2.976-0.896-3.538-2.691c-0.325-1.038-0.487-2.939-0.487-5.706
	c0-1.772-0.032-3.004-0.097-3.696c-0.195-2.053-0.888-3.08-2.078-3.08c-0.498,0-0.925,0.271-1.282,0.81
	c-0.357,0.541-0.536,1.178-0.536,1.913c-0.065,1.794-0.13,3.961-0.195,6.5c-0.065,2.541-0.13,6.149-0.195,10.829
	c-0.065,4.68-0.097,12.109-0.097,22.289c0,2.638,0.14,4.366,0.422,5.188c0.39,1.124,1.244,1.686,2.564,1.686
	c1.515,0,2.672-0.335,3.473-1.005c0.909-0.778,1.466-1.184,1.672-1.216c0.205-0.032,0.427-0.049,0.665-0.049
	c1.385,0.533,2.749,1.044,4.09,1.534s2.792,0.735,4.35,0.735c4.35,0,7.899-1.868,10.648-5.604c2.597-3.52,3.895-7.784,3.895-12.795
	C86.307,26.616,85.289,22.826,83.255,19.802z"/>
<path fill="#96989A" d="M94.648,16.113L94.648,16.113c0-0.821-0.194-1.551-0.581-2.188c-0.387-0.637-0.924-0.957-1.612-0.957
	c-1.097,0-1.801,0.67-2.112,2.01c-0.311,1.34-0.467,3.901-0.467,7.684c0,1.318,0,2.696,0,4.134s0,2.945,0,4.521
	c0,1.319,0,3.016,0,5.091c0,2.074,0,3.49,0,4.247c0,6.008,0.779,9.012,2.337,9.012c0.577,0,1.126-0.372,1.65-1.118
	c0.522-0.745,0.785-1.593,0.785-2.545V16.113z M94.863,4.295C95.087,3.831,95.2,3.329,95.2,2.788c0-0.951-0.321-1.686-0.962-2.205
	C93.681,0.194,93.103,0,92.504,0c-0.835,0-1.546,0.297-2.134,0.892s-0.883,1.324-0.883,2.188c0,1.016,0.385,1.805,1.156,2.367
	c0.556,0.324,1.101,0.486,1.637,0.486c0.557,0,1.091-0.162,1.604-0.486C94.312,5.144,94.638,4.761,94.863,4.295z"/>
<path fill="#4C9CD6" d="M118.865,30.831c-3.463-1.317-6.926-2.637-10.389-3.955c-3.722-1.469-5.582-3.392-5.582-5.771
	c0-1.08,0.659-2.269,1.979-3.566c1.579-1.535,3.431-2.302,5.552-2.302c1.124,0,2.444,0.303,3.959,0.908
	c1.364,0.541,2.933,1.178,4.708,1.913c0.13,0,0.378-0.108,0.747-0.324c0.15-0.086,0.291-0.13,0.421-0.13v-1.88
	c-1.623-1.188-3.046-1.956-4.269-2.302c-1.223-0.345-3.078-0.518-5.566-0.518c-3.723,0-6.684,0.821-8.879,2.464
	c-2.197,1.643-3.295,3.782-3.295,6.419c0,3.156,1.904,5.707,5.713,7.651c3.527,1.384,7.066,2.756,10.615,4.117
	c3.787,1.622,5.681,3.643,5.681,6.063c0,1.384-0.79,2.788-2.369,4.215c-1.731,1.556-3.69,2.335-5.876,2.335
	c-1.385,0-2.954-0.411-4.707-1.232c-3.592-1.686-5.54-2.529-5.844-2.529c-0.757,0-1.265,0.217-1.525,0.648
	c-0.129,0.217-0.227,0.476-0.292,0.778c1.364,1.924,3.235,3.361,5.616,4.312c2.078,0.844,4.415,1.266,7.012,1.266
	c3.57,0,6.498-0.887,8.781-2.659s3.425-4.149,3.425-7.133C124.481,35.813,122.609,32.885,118.865,30.831"/>
<path fill="#96989A" d="M151.813,40.493L151.813,40.493c-1.991,3.501-4.924,5.252-8.798,5.252c-2.662,0-5.021-1.221-7.076-3.664
	c-2.381-2.809-3.571-6.57-3.571-11.281c0-3.869,0.974-7.176,2.922-9.921c2.099-2.961,4.857-4.442,8.277-4.442
	c3.55,0,6.266,1.449,8.148,4.345c1.645,2.528,2.467,5.803,2.467,9.823C154.182,34.43,153.392,37.726,151.813,40.493 M155.351,19.29
	c-1.731-2.377-4.047-4.16-6.946-5.349c-1.948-0.799-3.669-1.199-5.162-1.199c-3.679,0-6.784,1.059-9.316,3.177
	c-2.143,1.794-3.777,4.215-4.902,7.262c-0.931,2.529-1.396,5.166-1.396,7.91c0,4.647,1.114,8.526,3.344,11.639
	c1.709,2.399,3.992,4.205,6.849,5.414c2.078,0.887,3.993,1.33,5.746,1.33c3.571,0,6.601-1.038,9.09-3.113
	c2.077-1.729,3.68-4.096,4.805-7.1c0.93-2.507,1.396-5.068,1.396-7.684C158.857,26.584,157.689,22.488,155.351,19.29z"/>
<path fill="#96989A" d="M177.23,1.005c-0.39-0.173-0.854-0.259-1.396-0.259c-2.402,0-4.221,0.768-5.454,2.302
	c-0.822,1.038-1.45,2.637-1.883,4.798c-0.519,2.615-0.812,4.009-0.876,4.182c-0.391,0.886-1.58,2.054-3.571,3.501
	c-0.779,0.562-1.169,1.113-1.169,1.653c0,0.627,0.455,1.275,1.363,1.945c1.234,0.908,2.057,1.632,2.468,2.172
	c0.887,1.211,1.331,2.81,1.331,4.798V47.3c0,1.405,0.443,2.248,1.33,2.528c0.26,0.065,0.617,0.174,1.072,0.324
	c0.691-0.863,1.185-1.69,1.477-2.479c0.293-0.788,0.438-1.69,0.438-2.707V23.829c0-1.21,0.573-2.258,1.72-3.145
	c1.948-1.535,3.247-2.702,3.896-3.501c-1.212-1.059-2.413-2.118-3.603-3.177c-1.342-1.21-2.013-2.442-2.013-3.696
	c0-1.383,0.552-2.594,1.655-3.631c2.727-2.593,4.188-4.268,4.382-5.025C178.117,1.502,177.728,1.286,177.23,1.005"/>
<path fill="#96989A" d="M195.797,12.449c-1.255-0.54-2.175-1.248-2.759-2.124c-0.584-0.875-0.914-2.68-0.99-5.414
	c-0.076-2.734-0.785-4.101-2.126-4.101c-0.866,0-1.461,0.583-1.785,1.75c-0.217,0.778-0.325,1.902-0.325,3.372v1.492
	c-0.13,1.275-0.704,2.518-1.721,3.728c-0.908,1.081-1.937,2.28-3.084,3.599c1.104,1.211,2.208,2.41,3.312,3.599
	c0.995,1.189,1.493,2.302,1.493,3.339v19.322c0,2.334,0.584,4.279,1.754,5.835c1.363,1.816,3.354,2.724,5.972,2.724
	c1.429,0,2.219-0.065,2.37-0.194c0.26-0.563,0.52-1.135,0.779-1.719c-2.836-2.247-4.491-3.652-4.967-4.215
	c-0.888-1.037-1.417-2.409-1.59-4.117c-0.065-0.669-0.098-3.576-0.098-8.721c0-5.813,0.357-9.628,1.07-11.444
	c0.412-1.059,1.332-1.788,2.76-2.188c1.429-0.399,2.554-1.356,3.376-2.869C198.806,13.822,197.659,13.271,195.797,12.449"/>
<path fill="#96989A" d="M200.078,80.068c0.248,0,0.461,0.083,0.633,0.252c0.17,0.169,0.256,0.379,0.256,0.624
	c0,0.246-0.09,0.458-0.266,0.634c-0.179,0.176-0.385,0.262-0.623,0.262c-0.239,0-0.452-0.089-0.631-0.271
	c-0.184-0.183-0.272-0.392-0.272-0.624c0-0.245,0.086-0.455,0.262-0.624C199.609,80.151,199.825,80.068,200.078,80.068
	 M193.857,73.099h-0.995v-0.976h0.995v-2.668h1.175v2.668h1.573v0.976h-1.573v8.562h-1.175V73.099z M188.623,81.661v-0.873
	c-0.143,0.335-0.362,0.598-0.656,0.78c-0.296,0.183-0.635,0.271-1.02,0.271c-0.815,0-1.41-0.4-1.775-1.201
	c-0.368-0.8-0.551-2.127-0.551-3.976c0-1.612,0.187-2.794,0.561-3.54c0.372-0.747,0.963-1.118,1.766-1.118
	c0.365,0,0.687,0.082,0.966,0.252c0.278,0.17,0.515,0.425,0.71,0.764v-0.896h1.154v9.537H188.623z M185.815,76.945
	c0,1.494,0.109,2.52,0.326,3.08c0.219,0.561,0.59,0.84,1.121,0.84c0.514,0,0.876-0.289,1.095-0.87
	c0.216-0.581,0.325-1.596,0.325-3.05c0-1.456-0.109-2.479-0.325-3.065c-0.219-0.588-0.581-0.88-1.095-0.88
	c-0.531,0-0.902,0.285-1.121,0.856C185.924,74.427,185.815,75.455,185.815,76.945z M181.838,77.181h-4.161V77.5
	c0,1.056,0.137,1.875,0.408,2.455c0.272,0.581,0.647,0.87,1.129,0.87c0.394,0,0.716-0.21,0.965-0.628
	c0.253-0.421,0.386-0.988,0.405-1.702h1.135c-0.047,1.032-0.296,1.849-0.75,2.449c-0.455,0.597-1.049,0.896-1.778,0.896
	c-0.89,0-1.557-0.407-2.001-1.221c-0.444-0.813-0.667-2.031-0.667-3.653c0-1.597,0.238-2.831,0.72-3.707s1.147-1.313,2.008-1.313
	c0.856,0,1.5,0.414,1.935,1.241c0.434,0.826,0.653,2.05,0.653,3.673V77.181z M180.724,76.205c-0.007-1.008-0.137-1.791-0.386-2.349
	s-0.598-0.836-1.045-0.836c-0.475,0-0.853,0.274-1.135,0.826c-0.282,0.551-0.441,1.337-0.481,2.358H180.724z M168.441,72.124h1.175
	v0.8c0.216-0.315,0.458-0.545,0.729-0.693c0.272-0.149,0.581-0.226,0.926-0.226c0.816,0,1.41,0.381,1.775,1.141
	c0.369,0.764,0.551,2.019,0.551,3.764c0,1.699-0.188,2.943-0.57,3.739c-0.378,0.794-0.973,1.191-1.775,1.191
	c-0.325,0-0.624-0.069-0.899-0.208c-0.278-0.14-0.521-0.352-0.736-0.631v4.483h-1.175V72.124z M170.957,80.865
	c0.524,0,0.893-0.279,1.104-0.837c0.216-0.557,0.321-1.583,0.321-3.083c0-1.51-0.105-2.544-0.321-3.105
	c-0.212-0.562-0.58-0.84-1.104-0.84c-0.515,0-0.877,0.292-1.096,0.88c-0.215,0.587-0.324,1.609-0.324,3.065
	c0,1.454,0.109,2.469,0.324,3.05C170.08,80.576,170.442,80.865,170.957,80.865z M165.201,77.181h-4.161V77.5
	c0,1.056,0.137,1.875,0.408,2.455c0.271,0.581,0.647,0.87,1.129,0.87c0.394,0,0.716-0.21,0.965-0.628
	c0.253-0.421,0.386-0.988,0.405-1.702h1.135c-0.047,1.032-0.296,1.849-0.75,2.449c-0.455,0.597-1.049,0.896-1.778,0.896
	c-0.89,0-1.557-0.407-2.001-1.221c-0.444-0.813-0.668-2.031-0.668-3.653c0-1.597,0.239-2.831,0.721-3.707s1.147-1.313,2.008-1.313
	c0.856,0,1.5,0.414,1.935,1.241c0.435,0.826,0.653,2.05,0.653,3.673V77.181z M164.086,76.205c-0.007-1.008-0.137-1.791-0.386-2.349
	s-0.598-0.836-1.045-0.836c-0.475,0-0.853,0.274-1.135,0.826c-0.282,0.551-0.441,1.337-0.481,2.358H164.086z M151.467,67.464h1.567
	c1.363,0,2.329,0.282,2.896,0.851c0.567,0.567,0.853,1.526,0.853,2.877c0,1.128-0.215,1.98-0.644,2.558
	c-0.428,0.577-1.088,0.896-1.984,0.963l3.086,6.948h-1.354l-3.126-7.327v7.327h-1.295V67.464z M152.762,68.66v5.137h0.614
	c0.72,0,1.247-0.203,1.576-0.607c0.331-0.405,0.497-1.052,0.497-1.941c0-0.916-0.163-1.576-0.487-1.98
	c-0.325-0.405-0.853-0.607-1.586-0.607H152.762z M142.644,80.068c0.248,0,0.461,0.083,0.634,0.252
	c0.169,0.169,0.255,0.379,0.255,0.624c0,0.246-0.09,0.458-0.266,0.634c-0.179,0.176-0.385,0.262-0.623,0.262
	c-0.239,0-0.452-0.089-0.631-0.271c-0.183-0.183-0.272-0.392-0.272-0.624c0-0.245,0.086-0.455,0.262-0.624
	C142.176,80.151,142.391,80.068,142.644,80.068z M136.424,73.099h-0.996v-0.976h0.996v-2.668h1.174v2.668h1.573v0.976h-1.573v8.562
	h-1.174V73.099z M128.857,79.79c0.285,0.328,0.581,0.577,0.886,0.743c0.303,0.169,0.611,0.252,0.923,0.252
	c0.435,0,0.793-0.14,1.075-0.418s0.422-0.638,0.422-1.078c0-0.538-0.484-1.222-1.457-2.052c-0.063-0.049-0.109-0.089-0.137-0.116
	c-0.767-0.653-1.268-1.174-1.492-1.56c-0.227-0.388-0.34-0.809-0.34-1.271c0-0.674,0.22-1.23,0.661-1.669s1.005-0.657,1.692-0.657
	c0.289,0,0.578,0.04,0.859,0.122c0.282,0.08,0.558,0.207,0.83,0.376v1.215c-0.239-0.233-0.494-0.412-0.767-0.535
	c-0.276-0.122-0.545-0.183-0.811-0.183c-0.381,0-0.703,0.123-0.962,0.369c-0.259,0.248-0.388,0.554-0.388,0.926
	c0,0.518,0.447,1.151,1.347,1.904c0.033,0.026,0.06,0.05,0.08,0.066c0.85,0.707,1.399,1.265,1.646,1.676
	c0.249,0.411,0.371,0.866,0.371,1.367c0,0.757-0.238,1.38-0.72,1.875c-0.481,0.491-1.092,0.736-1.832,0.736
	c-0.342,0-0.68-0.063-1.005-0.186c-0.328-0.123-0.624-0.292-0.883-0.511V79.79z M126.155,77.181h-4.161V77.5
	c0,1.056,0.136,1.875,0.407,2.455c0.272,0.581,0.647,0.87,1.129,0.87c0.395,0,0.717-0.21,0.966-0.628
	c0.252-0.421,0.385-0.988,0.404-1.702h1.135c-0.046,1.032-0.295,1.849-0.75,2.449c-0.455,0.597-1.049,0.896-1.778,0.896
	c-0.889,0-1.557-0.407-2-1.221c-0.445-0.813-0.668-2.031-0.668-3.653c0-1.597,0.239-2.831,0.721-3.707
	c0.48-0.876,1.147-1.313,2.007-1.313c0.856,0,1.5,0.414,1.936,1.241c0.434,0.826,0.653,2.05,0.653,3.673V77.181z M125.04,76.205
	c-0.006-1.008-0.136-1.791-0.385-2.349c-0.25-0.558-0.598-0.836-1.046-0.836c-0.475,0-0.852,0.274-1.135,0.826
	c-0.281,0.551-0.441,1.337-0.48,2.358H125.04z M115.615,68.62h-2.21v-1.155h5.714v1.155h-2.21v13.041h-1.294V68.62z M105.875,80.068
	c0.248,0,0.461,0.083,0.634,0.252c0.169,0.169,0.255,0.379,0.255,0.624c0,0.246-0.089,0.458-0.265,0.634
	c-0.179,0.176-0.386,0.262-0.624,0.262s-0.451-0.089-0.631-0.271c-0.183-0.183-0.271-0.392-0.271-0.624
	c0-0.245,0.086-0.455,0.262-0.624C105.407,80.151,105.623,80.068,105.875,80.068z M100.017,81.661v-0.873
	c-0.136,0.328-0.349,0.588-0.637,0.773c-0.289,0.187-0.628,0.278-1.019,0.278c-0.816,0-1.41-0.4-1.775-1.201
	c-0.368-0.8-0.551-2.127-0.551-3.976c0-1.612,0.186-2.794,0.56-3.54c0.373-0.747,0.963-1.118,1.766-1.118
	c0.372,0,0.696,0.082,0.979,0.249c0.282,0.166,0.508,0.408,0.678,0.727v-6.391h1.174v15.071H100.017z M97.228,76.945
	c0,1.494,0.11,2.52,0.326,3.08c0.219,0.561,0.59,0.84,1.122,0.84c0.514,0,0.876-0.289,1.095-0.87
	c0.215-0.581,0.325-1.596,0.325-3.05c0-1.456-0.11-2.479-0.325-3.065C99.552,73.292,99.189,73,98.676,73
	c-0.532,0-0.903,0.285-1.122,0.856C97.338,74.427,97.228,75.455,97.228,76.945z M91.36,66.589h1.195v15.071H91.36V66.589z
	 M86.288,72.124h1.195v9.537h-1.195V72.124z M86.886,68.341c0.252,0,0.464,0.083,0.637,0.252s0.259,0.378,0.259,0.624
	c0,0.231-0.087,0.438-0.263,0.614c-0.176,0.175-0.388,0.261-0.633,0.261c-0.232,0-0.438-0.089-0.614-0.268
	c-0.176-0.176-0.262-0.389-0.262-0.627c0-0.24,0.083-0.441,0.252-0.607C86.431,68.424,86.64,68.341,86.886,68.341z M77.53,72.124
	h1.174v6.249c0,0.882,0.103,1.499,0.305,1.858c0.203,0.354,0.547,0.533,1.032,0.533c0.474,0,0.81-0.175,1.009-0.523
	c0.202-0.353,0.302-0.973,0.302-1.868v-6.249h1.174v6.454c0,1.135-0.199,1.965-0.598,2.482c-0.397,0.521-1.025,0.779-1.888,0.779
	c-0.866,0-1.5-0.262-1.904-0.783c-0.405-0.523-0.607-1.351-0.607-2.479V72.124z M68.297,67.464h2.114
	c1.088,0,1.892,0.292,2.409,0.877c0.514,0.584,0.773,1.5,0.773,2.75c0,0.906-0.156,1.644-0.471,2.203
	c-0.315,0.562-0.764,0.906-1.341,1.036c0.727,0.205,1.261,0.598,1.6,1.172c0.342,0.574,0.511,1.363,0.511,2.375
	c0,1.265-0.292,2.211-0.88,2.841c-0.587,0.627-1.47,0.942-2.651,0.942h-2.065V67.464z M69.592,74.931v5.574h0.594
	c0.896,0,1.514-0.195,1.858-0.583c0.341-0.389,0.514-1.096,0.514-2.121c0-0.992-0.173-1.719-0.521-2.18
	c-0.345-0.461-0.89-0.69-1.626-0.69H69.592z M69.592,68.62v5.157h0.79c0.673,0,1.159-0.2,1.453-0.598
	c0.295-0.401,0.445-1.063,0.445-1.991c0-0.932-0.143-1.597-0.424-1.984c-0.282-0.389-0.75-0.584-1.408-0.584H69.592z M59.473,80.068
	c0.249,0,0.461,0.083,0.634,0.252c0.169,0.169,0.255,0.379,0.255,0.624c0,0.246-0.089,0.458-0.265,0.634
	c-0.179,0.176-0.385,0.262-0.624,0.262c-0.239,0-0.451-0.089-0.63-0.271c-0.183-0.183-0.272-0.392-0.272-0.624
	c0-0.245,0.085-0.455,0.261-0.624C59.005,80.151,59.221,80.068,59.473,80.068z M55.47,77.181h-4.161V77.5
	c0,1.056,0.136,1.875,0.408,2.455c0.272,0.581,0.648,0.87,1.129,0.87c0.394,0,0.716-0.21,0.965-0.628
	c0.252-0.421,0.385-0.988,0.405-1.702h1.134c-0.046,1.032-0.295,1.849-0.75,2.449c-0.455,0.597-1.049,0.896-1.778,0.896
	c-0.89,0-1.557-0.407-2.001-1.221c-0.444-0.813-0.667-2.031-0.667-3.653c0-1.597,0.239-2.831,0.72-3.707s1.147-1.313,2.007-1.313
	c0.856,0,1.5,0.414,1.935,1.241c0.434,0.826,0.653,2.05,0.653,3.673V77.181z M54.355,76.205c-0.007-1.008-0.136-1.791-0.385-2.349
	s-0.597-0.836-1.045-0.836c-0.475,0-0.853,0.274-1.135,0.826c-0.282,0.551-0.441,1.337-0.481,2.358H54.355z M41.953,72.124h1.175
	v0.873c0.209-0.329,0.468-0.577,0.777-0.743c0.312-0.167,0.663-0.249,1.052-0.249c0.673,0,1.165,0.239,1.474,0.714
	c0.309,0.478,0.461,1.254,0.461,2.332v6.61h-1.175v-6.786c0-0.746-0.086-1.258-0.262-1.536s-0.481-0.418-0.916-0.418
	c-0.461,0-0.809,0.202-1.048,0.607c-0.242,0.404-0.362,0.998-0.362,1.785v6.348h-1.175V72.124z M36.861,72.124h1.195v9.537h-1.195
	V72.124z M37.458,68.341c0.252,0,0.465,0.083,0.637,0.252s0.259,0.378,0.259,0.624c0,0.231-0.087,0.438-0.263,0.614
	c-0.176,0.175-0.388,0.261-0.634,0.261c-0.232,0-0.438-0.089-0.614-0.268c-0.176-0.176-0.262-0.389-0.262-0.627
	c0-0.24,0.083-0.441,0.252-0.607C37.003,68.424,37.213,68.341,37.458,68.341z M28.063,82.657h1.075v0.146
	c0,0.58,0.113,1.019,0.335,1.308c0.226,0.292,0.558,0.438,0.999,0.438c0.475,0,0.82-0.159,1.033-0.475
	c0.215-0.317,0.322-0.829,0.322-1.532v-1.696c-0.156,0.306-0.369,0.537-0.645,0.696c-0.271,0.16-0.597,0.24-0.972,0.24
	c-0.849,0-1.456-0.386-1.822-1.159c-0.361-0.77-0.544-2.104-0.544-3.998c0-1.586,0.189-2.755,0.563-3.501
	c0.379-0.747,0.966-1.118,1.763-1.118c0.365,0,0.687,0.087,0.965,0.259c0.279,0.173,0.508,0.425,0.691,0.757v-0.896H33v9.537
	c0,0.836-0.023,1.43-0.073,1.782c-0.049,0.349-0.133,0.63-0.249,0.846c-0.218,0.415-0.514,0.728-0.883,0.939
	c-0.368,0.209-0.803,0.315-1.304,0.315c-0.763,0-1.361-0.239-1.789-0.721c-0.428-0.478-0.64-1.148-0.64-2V82.657z M29.038,76.945
	c0,1.494,0.11,2.52,0.326,3.08c0.219,0.561,0.59,0.84,1.122,0.84c0.514,0,0.876-0.289,1.095-0.87
	c0.215-0.581,0.325-1.596,0.325-3.05c0-1.456-0.11-2.479-0.325-3.065C31.361,73.292,30.999,73,30.485,73
	c-0.532,0-0.903,0.285-1.122,0.856C29.147,74.427,29.038,75.455,29.038,76.945z M23.227,81.661v-0.873
	c-0.143,0.335-0.362,0.598-0.657,0.78c-0.295,0.183-0.635,0.271-1.019,0.271c-0.816,0-1.41-0.4-1.776-1.201
	c-0.368-0.8-0.55-2.127-0.55-3.976c0-1.612,0.186-2.794,0.561-3.54c0.372-0.747,0.963-1.118,1.766-1.118
	c0.365,0,0.687,0.082,0.965,0.252s0.515,0.425,0.71,0.764v-0.896h1.154v9.537H23.227z M20.419,76.945c0,1.494,0.109,2.52,0.326,3.08
	c0.219,0.561,0.59,0.84,1.121,0.84c0.514,0,0.876-0.289,1.095-0.87c0.215-0.581,0.325-1.596,0.325-3.05
	c0-1.456-0.11-2.479-0.325-3.065C22.742,73.292,22.38,73,21.866,73c-0.531,0-0.902,0.285-1.121,0.856
	C20.528,74.427,20.419,75.455,20.419,76.945z M7.18,72.124h1.175v0.873c0.209-0.329,0.468-0.577,0.776-0.743
	c0.312-0.167,0.664-0.249,1.052-0.249c0.408,0,0.76,0.1,1.048,0.302c0.292,0.202,0.527,0.508,0.7,0.916
	c0.236-0.401,0.521-0.707,0.863-0.912c0.338-0.202,0.724-0.306,1.152-0.306c0.68,0,1.171,0.239,1.476,0.714
	c0.305,0.478,0.458,1.254,0.458,2.332v6.61h-1.174v-6.786c0-0.746-0.087-1.258-0.263-1.536s-0.481-0.418-0.916-0.418
	c-0.461,0-0.809,0.202-1.049,0.607c-0.242,0.404-0.361,0.998-0.361,1.785v6.348h-1.175v-6.786c0-0.746-0.086-1.258-0.262-1.536
	s-0.481-0.418-0.916-0.418c-0.461,0-0.81,0.202-1.049,0.607c-0.242,0.404-0.361,0.998-0.361,1.785v6.348H7.18V72.124z M1.727,81.661
	V67.464h1.294v14.196H1.727z"/>
</svg>
