<?xml version="1.0" encoding="utf-8"?>
<!-- Generator: Adobe Illustrator 16.0.0, SVG Export Plug-In . SVG Version: 6.00 Build 0)  -->
<!DOCTYPE svg PUBLIC "-//W3C//DTD SVG 1.1//EN" "http://www.w3.org/Graphics/SVG/1.1/DTD/svg11.dtd">
<svg version="1.1" id="Layer_1" xmlns="http://www.w3.org/2000/svg" xmlns:xlink="http://www.w3.org/1999/xlink" x="0px" y="0px"
	 width="638.25px" height="191.662px" viewBox="0 0 638.25 191.662" enable-background="new 0 0 638.25 191.662"
	 xml:space="preserve">
<g>
	<path fill-rule="evenodd" clip-rule="evenodd" fill="#E62828" d="M75.382,0h487.481c41.468,0,75.387,33.927,75.387,75.382l0,0
		c0,41.457-33.919,75.382-75.387,75.382c-17.076,0-21.541,0.329-33.098,14.498l-21.53,26.4l-21.804-26.734
		c-8.381-10.269-12.693-14.164-26.4-14.164H75.382C33.934,150.764,0,116.839,0,75.382l0,0C0,33.919,33.921,0,75.382,0L75.382,0z
		 M508.235,169.935l10.888-13.353c14.123-17.299,22.139-19.552,43.74-19.552c33.889,0,61.658-27.771,61.658-61.648
		c0-33.879-27.77-61.649-61.658-61.649H75.382c-33.881,0-61.649,27.77-61.649,61.649c0,33.878,27.77,61.648,61.649,61.648h384.649
		c18.07,0,26.045,5.748,37.033,19.217L508.235,169.935L508.235,169.935z"/>
	<path fill="#E62828" d="M53.648,115.672v-13.413c5.408,4.13,11.371,6.174,17.91,6.174c8.731,0,13.097-2.577,13.097-7.731
		c0-1.445-0.383-2.684-1.129-3.703c-0.745-1.024-1.745-1.938-3.023-2.729c-1.259-0.786-2.771-1.489-4.495-2.104
		c-1.725-0.64-3.64-1.343-5.771-2.131c-2.62-1.045-4.984-2.131-7.069-3.301c-2.11-1.172-3.855-2.493-5.24-3.962
		c-1.405-1.489-2.451-3.15-3.15-5.024c-0.723-1.877-1.065-4.049-1.065-6.561c0-3.066,0.726-5.793,2.171-8.137
		c1.472-2.339,3.43-4.32,5.88-5.918c2.448-1.598,5.238-2.813,8.348-3.622c3.13-0.81,6.345-1.212,9.667-1.212
		c5.92,0,11.201,0.895,15.866,2.681V67.63c-4.492-3.066-9.667-4.602-15.48-4.602c-1.834,0-3.495,0.173-4.964,0.556
		c-1.469,0.36-2.727,0.893-3.77,1.555c-1.043,0.66-1.854,1.469-2.428,2.405c-0.596,0.936-0.873,1.958-0.873,3.089
		c0,1.362,0.277,2.534,0.873,3.493c0.573,0.956,1.428,1.809,2.577,2.534c1.151,0.723,2.511,1.385,4.13,1.979
		c1.598,0.619,3.43,1.278,5.517,1.98c2.747,1.109,5.197,2.258,7.39,3.43c2.193,1.17,4.048,2.491,5.58,3.962
		c1.532,1.469,2.725,3.171,3.557,5.111c0.829,1.938,1.255,4.236,1.255,6.899c0,3.236-0.745,6.067-2.255,8.478
		c-1.491,2.425-3.492,4.403-5.986,6.001c-2.49,1.578-5.367,2.75-8.645,3.516c-3.257,0.767-6.709,1.146-10.329,1.146
		C64.807,119.162,58.76,118.016,53.648,115.672L53.648,115.672z"/>
	<path fill="#E62828" d="M161.908,89.673h-43.527c0.147,5.897,1.981,10.455,5.451,13.651c3.473,3.211,8.242,4.81,14.312,4.81
		c6.836,0,13.076-2.045,18.783-6.108v11.648c-5.813,3.662-13.522,5.488-23.085,5.488c-9.391,0-16.76-2.891-22.106-8.685
		c-5.345-5.813-8.028-13.972-8.028-24.491c0-9.945,2.94-18.037,8.84-24.297c5.878-6.263,13.183-9.393,21.914-9.393
		c8.751,0,15.5,2.811,20.292,8.413c4.771,5.621,7.155,13.416,7.155,23.402V89.673L161.908,89.673z M147.939,79.428
		c-0.043-5.197-1.258-9.244-3.686-12.141c-2.404-2.873-5.728-4.319-9.966-4.319c-4.173,0-7.688,1.509-10.583,4.556
		c-2.896,3.023-4.662,7.006-5.324,11.904H147.939L147.939,79.428z"/>
	<path fill="#E62828" d="M226.429,117.676h-14.458V81.685c0-11.946-4.239-17.91-12.673-17.91c-4.409,0-8.052,1.642-10.925,4.964
		c-2.874,3.3-4.303,7.473-4.303,12.5v36.438h-14.544V53.788h14.544v10.603h0.257c4.771-8.071,11.69-12.094,20.698-12.094
		c6.965,0,12.267,2.257,15.909,6.771c3.663,4.493,5.494,11.032,5.494,19.55V117.676L226.429,117.676z"/>
	<path fill="#E62828" d="M267.757,116.991c-2.811,1.41-6.536,2.11-11.158,2.11c-12.396,0-18.591-5.94-18.591-17.848V65.139h-10.671
		V53.788h10.671v-14.78l14.481-4.133v18.913h15.268v11.351h-15.268v31.943c0,3.792,0.68,6.496,2.042,8.114
		c1.385,1.618,3.663,2.425,6.879,2.425c2.451,0,4.559-0.7,6.347-2.105V116.991L267.757,116.991z"/>
	<path fill="#E62828" d="M282.637,40.372c-2.364,0-4.389-0.769-6.07-2.301c-1.705-1.555-2.534-3.493-2.534-5.88
		c0-2.361,0.829-4.343,2.534-5.918c1.682-1.577,3.706-2.363,6.07-2.363c2.45,0,4.535,0.786,6.24,2.363
		c1.704,1.575,2.554,3.557,2.554,5.918c0,2.258-0.85,4.176-2.554,5.771C287.172,39.561,285.087,40.372,282.637,40.372
		L282.637,40.372z M289.813,117.676h-14.481V53.788h14.481V117.676L289.813,117.676z"/>
	<path fill="#E62828" d="M390.347,117.676h-10.228V80.982c0-7.072-1.105-12.184-3.277-15.334c-2.191-3.173-5.854-4.748-11.009-4.748
		c-4.362,0-8.097,2.001-11.141,5.983c-3.063,4.003-4.597,8.774-4.597,14.354v36.438h-10.227V79.747
		c0-12.563-4.85-18.847-14.54-18.847c-4.495,0-8.178,1.872-11.097,5.644c-2.918,3.77-4.363,8.668-4.363,14.694v36.438h-10.245
		V53.788h10.245v10.115h0.254c4.515-7.751,11.141-11.606,19.822-11.606c4.373,0,8.179,1.212,11.415,3.64
		c3.257,2.43,5.479,5.623,6.687,9.583c4.729-8.814,11.8-13.223,21.216-13.223c14.053,0,21.084,8.667,21.084,26.002V117.676
		L390.347,117.676z"/>
	<path fill="#E62828" d="M454.856,88.287h-45.101c0.162,7.113,2.08,12.607,5.743,16.483c3.663,3.855,8.695,5.793,15.107,5.793
		c7.194,0,13.8-2.364,19.847-7.117v9.608c-5.621,4.089-13.059,6.107-22.281,6.107c-9.03,0-16.123-2.891-21.277-8.685
		c-5.174-5.813-7.751-13.972-7.751-24.491c0-9.945,2.841-18.037,8.462-24.297c5.641-6.263,12.643-9.393,20.992-9.393
		c8.371,0,14.824,2.703,19.399,8.114c4.587,5.388,6.859,12.905,6.859,22.509V88.287L454.856,88.287z M444.385,79.62
		c-0.05-5.899-1.471-10.501-4.261-13.802c-2.811-3.279-6.707-4.918-11.719-4.918c-4.81,0-8.919,1.725-12.287,5.175
		c-3.358,3.449-5.448,7.965-6.24,13.545H444.385L444.385,79.62z"/>
	<path fill="#E62828" d="M492.539,117.058c-2.414,1.318-5.601,1.983-9.547,1.983c-11.202,0-16.782-6.245-16.782-18.72V62.519
		h-10.988v-8.73h10.988v-15.59l10.228-3.323v18.913h16.102v8.73h-16.102V98.53c0,4.282,0.721,7.325,2.191,9.157
		c1.451,1.831,3.855,2.749,7.244,2.749c2.577,0,4.789-0.705,6.666-2.13V117.058L492.539,117.058z"/>
	<path fill="#E62828" d="M547.807,88.287h-45.101c0.162,7.113,2.08,12.607,5.743,16.483c3.662,3.855,8.695,5.793,15.098,5.793
		c7.203,0,13.799-2.364,19.855-7.117v9.608c-5.631,4.089-13.058,6.107-22.281,6.107c-9.029,0-16.122-2.891-21.276-8.685
		c-5.175-5.813-7.752-13.972-7.752-24.491c0-9.945,2.831-18.037,8.462-24.297c5.642-6.263,12.643-9.393,20.993-9.393
		c8.37,0,14.823,2.703,19.399,8.114c4.586,5.388,6.859,12.905,6.859,22.509V88.287L547.807,88.287z M537.325,79.62
		c-0.041-5.899-1.461-10.501-4.251-13.802c-2.821-3.279-6.717-4.918-11.72-4.918c-4.81,0-8.918,1.725-12.287,5.175
		c-3.358,3.449-5.448,7.965-6.239,13.545H537.325L537.325,79.62z"/>
	<path fill="#E62828" d="M587.894,64.137c-1.785-1.364-4.362-2.044-7.731-2.044c-4.383,0-8.025,2.044-10.968,6.177
		c-2.922,4.108-4.383,9.732-4.383,16.845v32.562h-10.248V53.788h10.248v13.159h0.253c1.451-4.494,3.663-7.984,6.666-10.519
		c3.004-2.515,6.342-3.77,10.056-3.77c2.658,0,4.677,0.297,6.107,0.872V64.137L587.894,64.137z"/>
</g>
</svg>
