<?xml version="1.0" encoding="utf-8"?>
<!-- Generator: Adobe Illustrator 16.0.0, SVG Export Plug-In . SVG Version: 6.00 Build 0)  -->
<!DOCTYPE svg PUBLIC "-//W3C//DTD SVG 1.1//EN" "http://www.w3.org/Graphics/SVG/1.1/DTD/svg11.dtd">
<svg version="1.1" id="Layer_1" xmlns="http://www.w3.org/2000/svg" xmlns:xlink="http://www.w3.org/1999/xlink" x="0px" y="0px"
	 width="194.521px" height="55.103px" viewBox="0 0 194.521 55.103" enable-background="new 0 0 194.521 55.103"
	 xml:space="preserve">
<g>
	<path fill="#CF3034" d="M83.396,29.383v3.103h9.783v-3.103h-3.12v-9.525c2.075-1.529,3.771-2.294,5.089-2.294
		c0.806,0,1.376,0.26,1.712,0.78c0.335,0.521,0.504,1.361,0.504,2.524v11.618h6.533v-3.103h-3.046v-9.525
		c1.896-1.529,3.591-2.294,5.084-2.294c0.525,0,0.976,0.138,1.349,0.413c0.373,0.275,0.605,0.624,0.697,1.046
		s0.138,1.147,0.138,2.175v11.288h6.589v-3.103h-3.102v-8.81c0-1.517-0.128-2.664-0.386-3.441c-0.257-0.777-0.755-1.419-1.495-1.927
		c-0.74-0.508-1.687-0.762-2.836-0.762c-1.994,0-4.148,0.924-6.461,2.771c-0.77-1.848-2.168-2.771-4.195-2.771
		c-2.016,0-4.073,0.838-6.174,2.514v-2.239h-6.442v3.102h2.955v11.563H83.396L83.396,29.383z"/>
	<path fill="#CF3034" d="M132.063,16.802c-1.939-1.719-4.103-2.579-6.488-2.579c-2.436,0-4.592,0.881-6.471,2.643
		c-1.878,1.762-2.816,4.007-2.816,6.735c0,2.875,0.963,5.161,2.891,6.855c1.927,1.695,4.249,2.542,6.965,2.542
		c1.75,0,3.426-0.376,5.029-1.129c1.603-0.752,2.906-1.905,3.909-3.46l-3.083-1.357c-1.42,1.957-3.347,2.937-5.781,2.937
		c-1.677,0-3.054-0.508-4.13-1.523c-1.077-1.016-1.726-2.343-1.945-3.983h14.939C135.008,21.082,134.001,18.521,132.063,16.802
		L132.063,16.802z M120.27,21.95L120.27,21.95c0.221-1.444,0.826-2.622,1.817-3.533s2.184-1.368,3.579-1.368
		c1.529,0,2.82,0.505,3.872,1.514c1.053,1.01,1.701,2.138,1.945,3.387H120.27L120.27,21.95z"/>
	<path fill="#CF3034" d="M139.927,17.82v8.81c0,1.738,0.085,2.961,0.257,3.67c0.171,0.71,0.588,1.301,1.248,1.771
		c0.661,0.471,1.523,0.706,2.588,0.706c0.893,0,1.786-0.159,2.68-0.477v-3.176c-0.624,0.245-1.26,0.367-1.908,0.367
		c-0.612,0-0.995-0.162-1.147-0.486c-0.153-0.324-0.229-1.178-0.229-2.561V17.82h3.285v-3.102h-3.285V8.79l-3.487,3.193v2.735
		h-2.313v3.102H139.927L139.927,17.82z"/>
	<path fill="#CF3034" d="M164.952,16.802c-1.939-1.719-4.102-2.579-6.488-2.579c-2.435,0-4.591,0.881-6.47,2.643
		c-1.878,1.762-2.817,4.007-2.817,6.735c0,2.875,0.964,5.161,2.892,6.855c1.927,1.695,4.248,2.542,6.965,2.542
		c1.75,0,3.426-0.376,5.029-1.129c1.603-0.752,2.905-1.905,3.909-3.46l-3.083-1.357c-1.42,1.957-3.348,2.937-5.782,2.937
		c-1.677,0-3.053-0.508-4.13-1.523c-1.076-1.016-1.725-2.343-1.945-3.983h14.94C167.898,21.082,166.892,18.521,164.952,16.802
		L164.952,16.802z M153.16,21.95L153.16,21.95c0.221-1.444,0.825-2.622,1.816-3.533s2.185-1.368,3.579-1.368
		c1.529,0,2.82,0.505,3.873,1.514c1.052,1.01,1.7,2.138,1.945,3.387H153.16L153.16,21.95z"/>
	<path fill="#CF3034" d="M170.192,29.383v3.103h10.939v-3.103h-3.873v-3.909c0-2.423,0.211-4.103,0.633-5.039
		c0.423-0.936,1.071-1.581,1.946-1.936c0.874-0.355,2.199-0.533,3.973-0.533h0.698v-3.523h-0.918c-1.347,0-2.407,0.11-3.185,0.33
		s-1.514,0.673-2.211,1.358c-0.698,0.686-1.242,1.548-1.634,2.588v-4.001h-6.369v3.102h3.579v11.563H170.192L170.192,29.383z"/>
	<path fill="#CF3034" d="M20.456,25.3c-0.232-0.545-0.539-1.013-0.917-1.404c-0.38-0.392-0.811-0.722-1.294-0.991
		c-0.484-0.269-0.973-0.505-1.469-0.707c-0.495-0.202-0.985-0.388-1.468-0.56c-0.483-0.171-0.915-0.354-1.294-0.55
		s-0.686-0.422-0.917-0.679c-0.233-0.257-0.349-0.575-0.349-0.955c0-0.245,0.049-0.474,0.147-0.688
		c0.098-0.214,0.245-0.401,0.44-0.56c0.195-0.159,0.446-0.281,0.752-0.367c0.306-0.085,0.667-0.128,1.083-0.128
		c0.587,0,1.111,0.064,1.57,0.193c0.458,0.128,0.862,0.266,1.211,0.413s0.639,0.284,0.872,0.413
		c0.232,0.128,0.403,0.192,0.514,0.192c0.098,0,0.184-0.021,0.257-0.064c0.074-0.043,0.131-0.125,0.175-0.248
		c0.042-0.122,0.073-0.287,0.092-0.496c0.018-0.208,0.027-0.477,0.027-0.807c0-0.282-0.009-0.517-0.027-0.707
		c-0.019-0.189-0.04-0.349-0.064-0.477c-0.025-0.128-0.062-0.238-0.11-0.33c-0.049-0.092-0.132-0.184-0.248-0.276
		c-0.117-0.091-0.309-0.202-0.578-0.33c-0.27-0.128-0.6-0.248-0.991-0.358c-0.392-0.11-0.829-0.202-1.313-0.275
		s-0.982-0.11-1.496-0.11c-1.028,0-1.955,0.128-2.781,0.385c-0.826,0.257-1.526,0.618-2.102,1.083
		c-0.575,0.465-1.016,1.025-1.321,1.679c-0.306,0.655-0.459,1.374-0.459,2.157c0,0.771,0.113,1.432,0.339,1.982
		c0.227,0.551,0.526,1.022,0.899,1.414s0.795,0.722,1.267,0.991c0.471,0.27,0.954,0.508,1.45,0.716
		c0.495,0.208,0.979,0.398,1.45,0.569s0.893,0.355,1.266,0.551c0.374,0.196,0.673,0.425,0.899,0.688
		c0.227,0.263,0.34,0.579,0.34,0.945c0,0.318-0.062,0.6-0.184,0.845c-0.123,0.245-0.303,0.446-0.542,0.605
		c-0.238,0.159-0.52,0.281-0.844,0.367s-0.694,0.129-1.11,0.129c-0.661,0-1.251-0.08-1.771-0.239
		c-0.52-0.158-0.976-0.33-1.367-0.514s-0.719-0.352-0.981-0.505c-0.264-0.152-0.462-0.229-0.597-0.229
		c-0.11,0-0.202,0.021-0.275,0.064c-0.074,0.043-0.135,0.129-0.184,0.257c-0.049,0.129-0.086,0.3-0.11,0.514
		c-0.024,0.215-0.037,0.499-0.037,0.854c0,0.539,0.037,0.945,0.11,1.221c0.073,0.275,0.177,0.478,0.312,0.606
		c0.134,0.128,0.349,0.266,0.642,0.412c0.294,0.147,0.661,0.291,1.102,0.432s0.939,0.257,1.496,0.349s1.141,0.138,1.753,0.138
		c1.016,0,1.958-0.119,2.827-0.358c0.869-0.238,1.621-0.596,2.257-1.073s1.129-1.07,1.478-1.78s0.523-1.529,0.523-2.459
		C20.804,26.49,20.688,25.844,20.456,25.3L20.456,25.3z"/>
	<path fill="#CF3034" d="M39.397,22.464c0-1.15-0.147-2.214-0.44-3.193c-0.294-0.979-0.752-1.827-1.376-2.542
		c-0.625-0.715-1.423-1.275-2.396-1.679s-2.145-0.605-3.515-0.605c-1.297,0-2.463,0.214-3.497,0.642
		c-1.034,0.428-1.912,1.049-2.634,1.863c-0.722,0.814-1.272,1.805-1.652,2.974s-0.569,2.481-0.569,3.937
		c0,1.529,0.18,2.863,0.542,4.001c0.361,1.138,0.908,2.08,1.643,2.826s1.648,1.303,2.744,1.67c1.095,0.367,2.37,0.551,3.827,0.551
		c0.808,0,1.566-0.052,2.276-0.156c0.709-0.104,1.34-0.227,1.891-0.367c0.55-0.14,1.003-0.284,1.358-0.431
		c0.355-0.147,0.572-0.264,0.651-0.349c0.08-0.086,0.144-0.175,0.193-0.267s0.085-0.205,0.11-0.34
		c0.024-0.135,0.042-0.296,0.055-0.486c0.012-0.189,0.018-0.419,0.018-0.688c0-0.305-0.009-0.56-0.027-0.761
		c-0.019-0.202-0.052-0.358-0.101-0.469c-0.049-0.11-0.11-0.187-0.184-0.229c-0.073-0.042-0.165-0.063-0.275-0.063
		c-0.183,0-0.422,0.058-0.716,0.174s-0.664,0.245-1.11,0.386s-0.976,0.27-1.587,0.385c-0.612,0.117-1.322,0.175-2.129,0.175
		c-0.795,0-1.478-0.104-2.046-0.312s-1.034-0.511-1.395-0.909c-0.361-0.397-0.625-0.881-0.79-1.45
		c-0.165-0.569-0.248-1.202-0.248-1.9h9.966c0.44,0,0.786-0.134,1.037-0.403s0.376-0.685,0.376-1.248V22.464L39.397,22.464z
		 M28.018,21.876L28.018,21.876c0.024-0.575,0.113-1.117,0.266-1.624c0.153-0.508,0.374-0.948,0.661-1.322
		c0.287-0.373,0.648-0.67,1.083-0.89c0.434-0.22,0.945-0.331,1.532-0.331c1.163,0,2.022,0.371,2.579,1.11
		c0.557,0.741,0.817,1.759,0.78,3.056H28.018L28.018,21.876z"/>
	<path fill="#CF3034" d="M58.834,21.748c0-1.187-0.104-2.203-0.313-3.047s-0.547-1.581-1.018-2.211
		c-0.472-0.63-1.089-1.129-1.854-1.496s-1.704-0.55-2.817-0.55c-1.016,0-1.991,0.245-2.928,0.734
		c-0.936,0.49-1.856,1.224-2.762,2.203v-1.891c0-0.122-0.031-0.229-0.092-0.321c-0.061-0.091-0.162-0.168-0.303-0.229
		c-0.141-0.061-0.339-0.106-0.597-0.138c-0.256-0.03-0.581-0.046-0.972-0.046c-0.38,0-0.695,0.016-0.945,0.046
		c-0.251,0.031-0.456,0.077-0.615,0.138c-0.159,0.062-0.269,0.138-0.33,0.229c-0.062,0.092-0.092,0.199-0.092,0.321v16.372
		c0,0.122,0.037,0.229,0.11,0.32c0.073,0.093,0.199,0.169,0.376,0.23c0.177,0.061,0.413,0.106,0.707,0.137
		c0.294,0.031,0.667,0.046,1.12,0.046s0.826-0.015,1.12-0.046c0.293-0.03,0.529-0.076,0.707-0.137
		c0.177-0.062,0.303-0.138,0.376-0.23c0.074-0.091,0.11-0.198,0.11-0.32V20.977c0.648-0.819,1.272-1.444,1.872-1.872
		s1.193-0.642,1.781-0.642c0.465,0,0.872,0.088,1.22,0.266c0.349,0.177,0.633,0.428,0.854,0.752s0.388,0.713,0.505,1.166
		c0.116,0.453,0.174,1.077,0.174,1.872v9.342c0,0.122,0.037,0.229,0.11,0.32c0.073,0.093,0.196,0.169,0.367,0.23
		c0.171,0.061,0.407,0.106,0.707,0.137c0.3,0.031,0.676,0.046,1.129,0.046c0.44,0,0.81-0.015,1.11-0.046
		c0.3-0.03,0.535-0.076,0.707-0.137c0.171-0.062,0.294-0.138,0.367-0.23c0.073-0.091,0.11-0.198,0.11-0.32V21.748L58.834,21.748z"/>
	<path fill="#CF3034" d="M68.415,14.865v-3.652c0-0.122-0.037-0.232-0.11-0.33c-0.073-0.098-0.196-0.181-0.367-0.248
		c-0.172-0.067-0.407-0.116-0.707-0.147c-0.3-0.03-0.676-0.045-1.129-0.045c-0.44,0-0.811,0.015-1.11,0.045
		c-0.3,0.031-0.539,0.08-0.716,0.147c-0.178,0.067-0.3,0.15-0.367,0.248c-0.067,0.098-0.101,0.208-0.101,0.33v3.652h-1.945
		c-0.123,0-0.229,0.031-0.321,0.092c-0.092,0.062-0.168,0.162-0.229,0.303c-0.062,0.141-0.107,0.334-0.138,0.578
		c-0.031,0.245-0.046,0.545-0.046,0.899c0,0.673,0.061,1.153,0.184,1.441c0.122,0.288,0.3,0.431,0.532,0.431h1.964v8.388
		c0,1.004,0.104,1.872,0.312,2.606s0.532,1.343,0.973,1.826s0.998,0.842,1.67,1.073c0.673,0.232,1.468,0.349,2.386,0.349
		c0.342,0,0.682-0.018,1.019-0.055c0.336-0.036,0.648-0.089,0.936-0.156c0.287-0.067,0.541-0.146,0.761-0.238
		s0.386-0.202,0.496-0.33c0.11-0.129,0.195-0.331,0.257-0.605c0.061-0.275,0.092-0.683,0.092-1.221c0-0.343-0.016-0.624-0.046-0.845
		c-0.031-0.22-0.064-0.395-0.101-0.523c-0.037-0.128-0.089-0.213-0.156-0.257c-0.067-0.042-0.137-0.063-0.211-0.063
		c-0.086,0-0.181,0.021-0.284,0.063c-0.104,0.044-0.232,0.092-0.386,0.147c-0.153,0.055-0.327,0.104-0.523,0.146
		s-0.416,0.064-0.661,0.064c-0.722,0-1.224-0.224-1.505-0.67c-0.282-0.446-0.422-1.116-0.422-2.01v-7.69h7.36v13.252
		c0,0.122,0.037,0.229,0.11,0.32c0.074,0.093,0.196,0.169,0.367,0.23c0.171,0.061,0.407,0.106,0.707,0.137
		c0.3,0.031,0.676,0.046,1.129,0.046c0.44,0,0.811-0.015,1.11-0.046c0.3-0.03,0.535-0.076,0.707-0.137
		c0.171-0.062,0.294-0.138,0.367-0.23c0.074-0.091,0.11-0.198,0.11-0.32V16.15c0-0.416-0.101-0.734-0.303-0.955
		c-0.202-0.22-0.56-0.33-1.073-0.33H68.415L68.415,14.865z M80.198,8.083L80.198,8.083c-0.367-0.349-1.064-0.523-2.092-0.523
		c-1.04,0-1.747,0.181-2.12,0.542c-0.374,0.361-0.56,1.006-0.56,1.936c0,0.894,0.18,1.512,0.542,1.854
		c0.361,0.343,1.061,0.514,2.102,0.514c1.028,0,1.731-0.177,2.11-0.532s0.569-0.997,0.569-1.927
		C80.749,9.053,80.565,8.433,80.198,8.083L80.198,8.083z"/>
	<path fill-rule="evenodd" clip-rule="evenodd" fill="#CF3034" d="M0,0h194.521v43.344h-15.282l-9.591,11.759l-9.591-11.759H0V0L0,0
		z M4.058,4.058v35.229h153.506c2.997,0.073,4.331,0.001,5.553,1.39l6.531,8.008l6.541-8.021c1.237-1.495,3.061-1.377,5.543-1.377
		h8.731V4.058H4.058L4.058,4.058z"/>
</g>
</svg>
