<svg xmlns="http://www.w3.org/2000/svg" width="194.521" height="55.103"><g fill="#CF3034"><path d="M83.4 29.38v3.1h9.78v-3.1h-3.12v-9.52c2.07-1.53 3.77-2.3 5.1-2.3.8 0 1.36.26 1.7.78.34.52.5 1.36.5 2.53V32.5h6.54v-3.12h-3.05v-9.52c1.9-1.53 3.6-2.3 5.1-2.3.5 0 .96.14 1.33.42.38.27.6.62.7 1.04s.14 1.15.14 2.18v11.3h6.6v-3.12h-3.1v-8.8c0-1.52-.14-2.67-.4-3.45-.26-.78-.75-1.42-1.5-1.93-.73-.5-1.68-.76-2.83-.76-2 0-4.16.93-6.47 2.77-.77-1.83-2.17-2.76-4.2-2.76-2 0-4.07.84-6.17 2.52v-2.24h-6.44v3.1h2.95v11.56H83.4zM132.06 16.8c-1.94-1.72-4.1-2.58-6.5-2.58-2.42 0-4.58.88-6.46 2.65-1.87 1.76-2.8 4-2.8 6.73 0 2.88.95 5.16 2.88 6.86 1.93 1.7 4.25 2.54 6.96 2.54 1.75 0 3.43-.38 5.03-1.13 1.6-.75 2.9-1.9 3.9-3.46L132 27.06C130.58 29 128.65 30 126.22 30c-1.68 0-3.06-.52-4.13-1.53-1.1-1.02-1.74-2.35-1.96-4h14.94c-.07-3.4-1.08-5.95-3.02-7.67zm-11.8 5.15c.23-1.44.84-2.62 1.83-3.53s2.17-1.37 3.57-1.37c1.52 0 2.82.5 3.87 1.5 1.05 1.02 1.7 2.15 1.94 3.4h-11.2zM139.93 17.82v8.8c0 1.75.08 2.97.25 3.68.17.7.6 1.3 1.25 1.77.66.47 1.52.7 2.6.7.88 0 1.78-.15 2.67-.47v-3.18c-.62.25-1.26.37-1.9.37-.62 0-1-.17-1.16-.5-.15-.32-.22-1.17-.22-2.56v-8.62h3.28v-3.1h-3.28V8.8l-3.5 3.18v2.74h-2.3v3.1h2.3zM164.95 16.8c-1.94-1.72-4.1-2.58-6.5-2.58-2.42 0-4.58.88-6.46 2.65-1.88 1.76-2.82 4-2.82 6.73 0 2.88.96 5.16 2.9 6.86 1.92 1.7 4.24 2.54 6.95 2.54 1.75 0 3.43-.38 5.03-1.13 1.6-.75 2.9-1.9 3.9-3.46l-3.07-1.35C163.46 29 161.53 30 159.1 30c-1.67 0-3.05-.52-4.12-1.53-1.08-1.02-1.73-2.35-1.95-4h14.94c-.07-3.4-1.08-5.95-3.02-7.67zm-11.8 5.15c.23-1.44.83-2.62 1.83-3.53s2.18-1.37 3.58-1.37c1.52 0 2.82.5 3.87 1.5 1.05 1.02 1.7 2.15 1.94 3.4h-11.2zM170.2 29.38v3.1h10.93v-3.1h-3.87v-3.9c0-2.43.2-4.1.63-5.05.4-.93 1.06-1.58 1.94-1.93.87-.36 2.2-.53 3.97-.53h.7v-3.53h-.9c-1.36 0-2.42.1-3.2.33s-1.5.68-2.2 1.36c-.7.7-1.25 1.55-1.64 2.6v-4h-6.37v3.1h3.57v11.55h-3.58zM20.46 25.3c-.24-.55-.54-1-.92-1.4-.38-.4-.8-.73-1.3-1-.48-.26-.97-.5-1.46-.7-.5-.2-1-.4-1.47-.56-.48-.17-.9-.36-1.3-.55s-.67-.43-.9-.7c-.24-.25-.35-.57-.35-.95 0-.24.05-.47.14-.68.1-.22.24-.4.43-.56.2-.15.45-.27.76-.36.3-.1.65-.13 1.07-.13.6 0 1.1.08 1.57.2.46.13.86.27 1.2.42s.65.28.88.4c.23.14.4.2.52.2.1 0 .18-.02.25-.06.07-.04.12-.13.17-.25.04-.1.07-.28.1-.5 0-.2.02-.46.02-.8 0-.27-.02-.5-.04-.7-.02-.2-.04-.35-.06-.48-.03-.12-.07-.23-.1-.33-.06-.1-.15-.2-.26-.28-.12-.1-.3-.2-.58-.33-.27-.14-.6-.26-1-.37-.38-.1-.82-.2-1.3-.28s-1-.1-1.5-.1c-1.03 0-1.95.12-2.78.38-.83.26-1.53.62-2.1 1.08-.58.48-1.02 1.04-1.32 1.7-.3.65-.46 1.37-.46 2.15 0 .77.1 1.43.34 1.98.22.55.52 1.02.9 1.4s.8.74 1.26 1c.47.28.96.5 1.45.72.5.2.98.4 1.45.57s.9.36 1.27.55c.37.2.67.43.9.7.22.25.34.57.34.93 0 .32-.05.6-.18.85-.12.24-.3.45-.54.6-.24.16-.52.3-.84.37s-.7.13-1.1.13c-.67 0-1.26-.08-1.78-.24-.52-.15-.98-.32-1.37-.5s-.73-.35-1-.5c-.26-.16-.45-.24-.6-.24-.1 0-.2.02-.26.07-.08.04-.14.13-.2.25-.04.13-.07.3-.1.52-.02.2-.03.5-.03.85 0 .54.04.95.12 1.22.07.28.17.48.3.6.14.14.36.28.65.42.3.14.66.28 1.1.42s.94.26 1.5.35 1.14.14 1.75.14c1.02 0 1.96-.1 2.83-.35.87-.24 1.62-.6 2.25-1.07s1.13-1.07 1.48-1.78.53-1.53.53-2.46c0-.75-.1-1.4-.34-1.94zM39.4 22.46c0-1.15-.15-2.2-.44-3.2-.3-.97-.76-1.82-1.38-2.53-.62-.72-1.42-1.28-2.4-1.68s-2.14-.6-3.5-.6c-1.3 0-2.47.2-3.5.64-1.04.4-1.92 1.04-2.64 1.85-.72.8-1.27 1.8-1.65 2.97s-.58 2.48-.58 3.94c0 1.53.18 2.86.54 4 .36 1.14.9 2.08 1.64 2.83s1.65 1.3 2.75 1.66c1.1.37 2.37.55 3.82.55.8 0 1.57-.04 2.28-.15.7-.1 1.34-.22 1.9-.36.54-.15 1-.3 1.35-.44.35-.15.57-.27.65-.35.08-.08.14-.17.2-.26s.08-.2.1-.34c.03-.14.05-.3.06-.5.02-.18.03-.4.03-.67 0-.3 0-.56-.03-.77-.02-.2-.05-.35-.1-.46-.05-.1-.1-.2-.2-.23-.06-.05-.15-.07-.26-.07-.18 0-.42.06-.72.18s-.66.24-1.1.38-.98.27-1.6.4c-.6.1-1.32.16-2.12.16s-1.48-.1-2.05-.3-1.03-.52-1.4-.92c-.35-.4-.62-.88-.78-1.45-.17-.57-.25-1.2-.25-1.9h9.96c.44 0 .8-.13 1.04-.4s.38-.7.38-1.25v-.74zm-11.38-.58c.02-.58.1-1.12.26-1.63.16-.5.38-.95.66-1.32.3-.37.65-.67 1.1-.9.42-.2.93-.32 1.52-.32 1.16 0 2.02.38 2.58 1.12.56.74.82 1.76.78 3.06h-6.9zM58.83 21.75c0-1.2-.1-2.2-.3-3.05s-.56-1.58-1.03-2.2c-.47-.64-1.1-1.14-1.85-1.5s-1.7-.56-2.82-.56c-1 0-2 .25-2.93.74-.93.5-1.85 1.22-2.76 2.2v-1.9c0-.1-.03-.22-.1-.3-.05-.1-.15-.18-.3-.24-.13-.06-.33-.1-.6-.14-.25-.03-.57-.04-.96-.04-.38 0-.7 0-.95.04-.25.03-.45.08-.6.14-.17.06-.28.14-.34.23-.07.1-.1.2-.1.32v16.36c0 .12.03.23.1.32.08.1.2.17.38.23.18.07.42.12.7.15.3.03.68.05 1.13.05s.84-.02 1.13-.05c.3-.03.53-.08.7-.14.18-.05.3-.13.38-.22.1-.1.12-.2.12-.32V20.98c.65-.82 1.27-1.45 1.87-1.88s1.2-.64 1.77-.64c.47 0 .88.1 1.22.27.34.18.63.43.85.75s.4.7.5 1.17c.12.45.18 1.07.18 1.87v9.34c0 .12.03.23.1.32.08.1.2.17.37.23.18.07.4.12.7.15.3.03.7.04 1.14.04.44 0 .8-.02 1.1-.05.3-.03.55-.08.72-.14.17-.05.3-.13.36-.22.08-.1.1-.2.1-.32v-10.1zM68.42 14.87V11.2c0-.1-.04-.22-.1-.32-.1-.1-.2-.18-.38-.24-.17-.07-.4-.12-.7-.15-.3-.04-.68-.06-1.14-.06-.44 0-.8.02-1.1.05-.3.02-.55.07-.72.14-.18.06-.3.15-.37.24-.06.1-.1.2-.1.33v3.67h-1.94c-.12 0-.23.03-.32.1-.1.05-.17.15-.23.3-.05.13-.1.32-.12.57-.04.24-.05.54-.05.9 0 .67.06 1.15.18 1.44.14.3.3.43.55.43h1.96V27c0 1 .1 1.87.32 2.6s.53 1.35.97 1.83 1 .84 1.66 1.07c.68.23 1.47.35 2.4.35.33 0 .67-.02 1-.05.35-.04.66-.1.95-.16.3-.07.55-.15.77-.24s.38-.2.5-.33c.1-.13.2-.33.25-.6.06-.28.1-.7.1-1.22 0-.35-.02-.63-.05-.85-.04-.22-.07-.4-.1-.52-.04-.13-.1-.2-.16-.26-.06-.04-.13-.06-.2-.06-.1 0-.18.02-.3.06-.1.05-.22.1-.37.15-.16.05-.33.1-.53.14s-.4.08-.66.08c-.72 0-1.22-.23-1.5-.67-.28-.44-.42-1.1-.42-2v-7.7h7.36v13.26c0 .12.03.23.1.32.08.1.2.17.37.23.17.07.4.12.7.15.3.03.7.04 1.14.04.43 0 .8-.02 1.1-.05.3-.03.53-.08.7-.14.18-.05.3-.13.37-.22.08-.1.1-.2.1-.32v-15.7c0-.43-.1-.74-.3-.97-.2-.23-.55-.34-1.06-.34H68.43zm11.78-6.8c-.37-.34-1.07-.5-2.1-.5s-1.74.17-2.1.53c-.4.36-.57 1-.57 1.94 0 .9.18 1.5.54 1.85.36.33 1.06.5 2.1.5 1.03 0 1.73-.17 2.1-.53s.58-1 .58-1.92c0-.9-.2-1.52-.55-1.87z"/><path fill-rule="evenodd" d="M0 0h194.52v43.34h-15.28l-9.6 11.76-9.58-11.76H0V0zm4.06 4.06V39.3h153.5c3 .06 4.33 0 5.56 1.38l6.53 8 6.54-8.02c1.23-1.5 3.05-1.37 5.53-1.37h8.73V4.05H4.06z" clip-rule="evenodd"/></g></svg>